<?xml version="1.0" standalone="no"?>
<svg xmlns:xlink="http://www.w3.org/1999/xlink" id="wave" style="transform:rotate(180deg); transition: 0.3s" viewBox="0 0 1440 490" version="1.1" xmlns="http://www.w3.org/2000/svg"><defs><linearGradient id="sw-gradient-0" x1="0" x2="0" y1="1" y2="0"><stop stop-color="rgba(59, 101, 95, 1)" offset="0%"/><stop stop-color="rgba(38, 106, 112, 1)" offset="100%"/></linearGradient></defs><path style="transform:translate(0, 0px); opacity:1" fill="url(#sw-gradient-0)" d="M0,294L60,277.7C120,261,240,229,360,179.7C480,131,600,65,720,49C840,33,960,65,1080,73.5C1200,82,1320,65,1440,122.5C1560,180,1680,310,1800,375.7C1920,441,2040,441,2160,375.7C2280,310,2400,180,2520,171.5C2640,163,2760,278,2880,285.8C3000,294,3120,196,3240,196C3360,196,3480,294,3600,343C3720,392,3840,392,3960,359.3C4080,327,4200,261,4320,269.5C4440,278,4560,359,4680,400.2C4800,441,4920,441,5040,424.7C5160,408,5280,376,5400,302.2C5520,229,5640,114,5760,57.2C5880,0,6000,0,6120,49C6240,98,6360,196,6480,253.2C6600,310,6720,327,6840,343C6960,359,7080,376,7200,334.8C7320,294,7440,196,7560,130.7C7680,65,7800,33,7920,40.8C8040,49,8160,98,8280,122.5C8400,147,8520,147,8580,147L8640,147L8640,490L8580,490C8520,490,8400,490,8280,490C8160,490,8040,490,7920,490C7800,490,7680,490,7560,490C7440,490,7320,490,7200,490C7080,490,6960,490,6840,490C6720,490,6600,490,6480,490C6360,490,6240,490,6120,490C6000,490,5880,490,5760,490C5640,490,5520,490,5400,490C5280,490,5160,490,5040,490C4920,490,4800,490,4680,490C4560,490,4440,490,4320,490C4200,490,4080,490,3960,490C3840,490,3720,490,3600,490C3480,490,3360,490,3240,490C3120,490,3000,490,2880,490C2760,490,2640,490,2520,490C2400,490,2280,490,2160,490C2040,490,1920,490,1800,490C1680,490,1560,490,1440,490C1320,490,1200,490,1080,490C960,490,840,490,720,490C600,490,480,490,360,490C240,490,120,490,60,490L0,490Z"/></svg>